<svg xmlns="http://www.w3.org/2000/svg">
<symbol id="star" viewBox="0 0 64 64"><circle cx="32" cy="32" fill="#C75C5C" r="32"/><path d="M52.872 28.063a2.635 2.635 0 0 0-2.121-1.79l-11.327-1.645-5.067-10.263a2.628 2.628 0 0 0-4.714 0l-5.064 10.263-11.329 1.645a2.627 2.627 0 0 0-2.121 1.79 2.623 2.623 0 0 0 .665 2.694l8.197 7.99-1.934 11.283a2.63 2.63 0 0 0 2.589 3.072c.418 0 .838-.1 1.222-.302L32 47.473 42.132 52.8a2.624 2.624 0 0 0 2.767-.2 2.632 2.632 0 0 0 1.046-2.57L44.01 38.746l8.197-7.99a2.63 2.63 0 0 0 .665-2.693z" fill="#231F20" opacity=".2"/><path d="M52.872 26.063a2.635 2.635 0 0 0-2.121-1.79l-11.327-1.645-5.067-10.263a2.628 2.628 0 0 0-4.714 0l-5.064 10.263-11.329 1.645a2.627 2.627 0 0 0-2.121 1.79 2.623 2.623 0 0 0 .665 2.694l8.197 7.99-1.934 11.283a2.63 2.63 0 0 0 2.589 3.072c.418 0 .838-.1 1.222-.302L32 45.473 42.132 50.8a2.624 2.624 0 0 0 2.767-.2 2.632 2.632 0 0 0 1.046-2.57L44.01 36.746l8.197-7.99a2.63 2.63 0 0 0 .665-2.693z" fill="#F5CF87"/></symbol>
</svg>